<?xml version="1.0" standalone="no"?><!DOCTYPE svg PUBLIC "-//W3C//DTD SVG 1.1//EN" "http://www.w3.org/Graphics/SVG/1.1/DTD/svg11.dtd"><svg t="1583660833354" class="icon" viewBox="0 0 1024 1024" version="1.1" xmlns="http://www.w3.org/2000/svg" p-id="5761" xmlns:xlink="http://www.w3.org/1999/xlink" width="200" height="200"><defs><style type="text/css"></style></defs><path d="M298.3 256c-47.1 0-85.3 38.2-85.3 85.3v512c0 47.1 38.2 85.3 85.3 85.3h128V1024H597v-85.3h128c47.1 0 85.3-38.2 85.3-85.3v-512c0-47.1-38.2-85.3-85.3-85.3V0H298.3v256z" fill="#666666" p-id="5762"></path><path d="M255.7 341.3c0-23.6 19.1-42.7 42.7-42.7H725c23.6 0 42.7 19.1 42.7 42.7v512c0 23.6-19.1 42.7-42.7 42.7H298.3c-23.6 0-42.7-19.1-42.7-42.7v-512h0.1z" fill="#FEFCEA" p-id="5763"></path><path d="M341 42.7h341.3V256H341z" fill="#F5F5F5" p-id="5764"></path><path d="M341 341.3h42.7v512H341v-512z m298.7 0h42.7v512h-42.7v-512zM469 128h85.3v128H469z" fill="#FFE4B8" p-id="5765"></path></svg>